<svg width="23" height="23" viewBox="0 0 23 23" fill="none" xmlns="http://www.w3.org/2000/svg">
<path d="M5.28469 9.28826C5.05376 9.96329 4.93638 10.672 4.93734 11.3854C4.93734 12.1821 5.08062 12.9452 5.34548 13.6497C5.67558 14.5302 6.1941 15.3279 6.86475 15.9871C7.5354 16.6463 8.34198 17.1509 9.22806 17.4657C10.1141 17.7806 11.0583 17.898 11.9945 17.8098C12.9307 17.7215 13.8363 17.4298 14.648 16.955H14.6491C15.9278 16.2053 16.9103 15.0392 17.4322 13.6519H11.6282V9.35773H22.0542C22.3239 10.7781 22.3076 12.2379 22.0064 13.6519C21.4846 16.0962 20.1349 18.2855 18.1856 19.8499C16.2601 21.4004 13.8615 22.244 11.3894 22.2401C9.52561 22.2412 7.69295 21.7622 6.06801 20.8494C4.44306 19.9365 3.08059 18.6206 2.11186 17.0283C1.14313 15.4361 0.600794 13.6211 0.537102 11.7584C0.47341 9.89573 0.890509 8.04801 1.74821 6.39329C2.66324 4.62604 4.04658 3.14442 5.74697 2.11044C7.44736 1.07646 9.39932 0.529942 11.3894 0.53064C14.0228 0.53064 16.4379 1.46849 18.318 3.0294L14.8011 5.90808C13.9772 5.39535 13.0484 5.07491 12.0836 4.9706C11.1188 4.86629 10.143 4.98079 9.22855 5.30558C8.31414 5.63038 7.4847 6.15712 6.8019 6.84663C6.11911 7.53615 5.60052 8.37071 5.28469 9.28826Z" fill="white"/>
</svg>
